<svg width="13" height="14" viewBox="0 0 13 14" fill="none" xmlns="http://www.w3.org/2000/svg">
<path d="M9.8508 13.0726H2.79525C1.33651 13.0726 0.149414 11.8855 0.149414 10.4267V3.37118C0.149414 1.91244 1.33651 0.725342 2.79525 0.725342H7.20497C7.43888 0.725342 7.6632 0.818261 7.8286 0.983658C7.994 1.14905 8.08691 1.37338 8.08691 1.60729C8.08691 1.84119 7.994 2.06552 7.8286 2.23092C7.6632 2.39631 7.43888 2.48923 7.20497 2.48923H2.79525C2.30841 2.48923 1.9133 2.88522 1.9133 3.37118V10.4267C1.9133 10.9127 2.30841 11.3087 2.79525 11.3087H9.8508C10.3376 11.3087 10.7327 10.9127 10.7327 10.4267V7.7809C10.7327 7.54699 10.8257 7.32267 10.9911 7.15727C11.1565 6.99187 11.3808 6.89895 11.6147 6.89895C11.8486 6.89895 12.0729 6.99187 12.2383 7.15727C12.4037 7.32267 12.4966 7.54699 12.4966 7.7809V10.4267C12.4966 11.8855 11.3095 13.0726 9.8508 13.0726ZM7.35137 9.3975C7.04269 9.3975 6.74371 9.27491 6.52146 9.05266L4.16844 6.70052C3.95678 6.47805 3.84049 6.18165 3.8444 5.87461C3.84831 5.56757 3.9721 5.27422 4.18934 5.05721C4.40658 4.8402 4.70006 4.71672 5.0071 4.71314C5.31415 4.70956 5.61042 4.82616 5.83266 5.03805L7.0815 6.28777L10.1463 1.47676C10.2187 1.33716 10.3184 1.2135 10.4394 1.11309C10.5605 1.01268 10.7004 0.937563 10.851 0.892171C11.0016 0.846779 11.1597 0.832036 11.3161 0.848816C11.4725 0.865597 11.6239 0.913558 11.7614 0.989865C11.8989 1.06617 12.0197 1.16928 12.1167 1.29308C12.2137 1.41689 12.2849 1.55888 12.3261 1.71067C12.3672 1.86246 12.3775 2.02096 12.3564 2.1768C12.3352 2.33264 12.2831 2.48266 12.2029 2.61799L8.3806 8.79161C8.29234 8.95072 8.16833 9.08715 8.01834 9.19015C7.86835 9.29316 7.69649 9.35991 7.5163 9.38515L7.35137 9.3975Z" fill="#2549D3"/>
</svg>
